#!OML:ASF X:\für Bonn\!DataBase\2005_08_12_Daniel\c3d\Daniel.ASF
:FULLY-SPECIFIED
:DEGREES
166
root 0.677852 16.1202 -16.9309 375.979 16.2805 9.12054
lowerback 84.6482 -7.88706 10.7101
upperback 7.5194 1.85431 -1.794
thorax -10.7154 1.34266 -6.91259
lowerneck 3.24472 -8.39403 -1.20428
upperneck 3.88391 -11.1411 5.30179
head 1.06411 -5.47365 1.82761
rclavicle -8.26944e-014 1.03368e-014
rhumerus 237.676 -154.978 -264.492
rradius 3.23301
rwrist 27.6822
rhand -37.283 4.50436
rfingers 7.12502
rthumb -10.3477 -25.2211
lclavicle -8.26944e-014 1.03368e-014
lhumerus -33.0052 -18.2789 94.3876
lradius 54.3215
lwrist 11.7658
lhand -8.99161 -7.70503
lfingers 7.12502
lthumb 16.9545 21.575
rfemur -55.5784 -8.81613 5.46055
rtibia 65.8522
rfoot -22.6435 -4.00617
rtoes -14.3816
lfemur -58.2922 -7.11956 -25.7586
ltibia 59.5629
lfoot -13.4856 -16.969
ltoes -8.16197
167
root 0.673724 16.052 -16.9239 376.02 16.4112 9.29314
lowerback 84.9649 -7.9435 10.6697
upperback 7.44439 1.8319 -1.79585
thorax -10.7618 1.33675 -6.88487
lowerneck 3.43183 -8.37902 -1.26377
upperneck 3.82259 -11.1169 5.33129
head 1.01797 -5.46501 1.85709
rclavicle -5.725e-014 -7.15625e-015
rhumerus 237.672 -154.833 -264.293
rradius 3.32826
rwrist 27.418
rhand -37.7089 4.57348
rfingers 7.12502
rthumb -10.7585 -25.131
lclavicle -5.725e-014 -7.15625e-015
lhumerus -32.9303 -18.3495 94.4611
lradius 54.5065
lwrist 12.2506
lhand -9.1073 -7.80964
lfingers 7.12502
lthumb 16.8431 21.4799
rfemur -56.1211 -8.96763 5.28674
rtibia 66.8393
rfoot -22.9898 -3.97281
rtoes -14.5875
lfemur -58.8571 -7.11984 -25.9556
ltibia 60.457
lfoot -13.7168 -17.1576
ltoes -7.83857
168
root 0.670267 15.9956 -16.9182 376.046 16.5418 9.44581
lowerback 85.2566 -8.01111 10.6396
upperback 7.39007 1.8001 -1.80815
thorax -10.786 1.33041 -6.86974
lowerneck 3.52688 -8.36143 -1.32663
upperneck 3.77128 -11.0925 5.36054
head 0.990576 -5.45553 1.88251
rclavicle 3.18055e-014 -1.66979e-014
rhumerus 237.683 -154.702 -264.121
rradius 3.40621
rwrist 27.1254
rhand -38.1347 4.60432
rfingers 7.12502
rthumb -11.1692 -25.0784
lclavicle 3.18055e-014 -1.66979e-014
lhumerus -32.8584 -18.404 94.5025
lradius 54.7493
lwrist 12.6662
lhand -9.1686 -7.87441
lfingers 7.12502
lthumb 16.7841 21.4201
rfemur -56.5746 -9.11087 5.13157
rtibia 67.746
rfoot -23.3518 -3.92058
rtoes -14.7784
lfemur -59.3394 -7.11921 -26.1356
ltibia 61.2761
lfoot -13.9636 -17.3282
ltoes -7.5951
169
root 0.666559 15.9398 -16.9132 376.074 16.6654 9.61619
lowerback 85.5105 -8.05672 10.5887
upperback 7.35595 1.76606 -1.82052
thorax -10.794 1.32532 -6.84756
lowerneck 3.48915 -8.34453 -1.39342
upperneck 3.85171 -11.0743 5.38143
head 1.02702 -5.44458 1.89662
rclavicle -9.54166e-015 -1.31198e-014
rhumerus 237.676 -154.586 -263.979
rradius 3.50187
rwrist 26.8474
rhand -38.5786 4.58411
rfingers 7.12502
rthumb -11.5973 -25.075
lclavicle -9.54166e-015 -1.31198e-014
lhumerus -32.7974 -18.4552 94.5108
lradius 55.0022
lwrist 12.9967
lhand -9.23239 -8.04343
lfingers 7.12502
lthumb 16.7227 21.2563
rfemur -57.0101 -9.23001 4.94589
rtibia 68.6202
rfoot -23.6844 -3.89054
rtoes -14.8767
lfemur -59.811 -7.13438 -26.3281
ltibia 62.0744
lfoot -14.2104 -17.4984
ltoes -7.48907
170
root 0.663587 15.8852 -16.9077 376.125 16.7902 9.76814
lowerback 85.7253 -8.11241 10.5653
upperback 7.3075 1.73442 -1.84746
thorax -10.8224 1.31961 -6.85554
lowerneck 3.39223 -8.33311 -1.44781
upperneck 3.99493 -11.0652 5.40018
head 1.09282 -5.43579 1.90381
rclavicle 2.8625e-014 4.37326e-015
rhumerus 237.642 -154.48 -263.851
rradius 3.54149
rwrist 26.4948
rhand -39.0154 4.52341
rfingers 7.12502
rthumb -12.0185 -25.1115
lclavicle 2.8625e-014 4.37326e-015
lhumerus -32.7301 -18.5372 94.5111
lradius 55.2022
lwrist 13.344
lhand -9.29486 -8.21878
lfingers 7.12502
lthumb 16.6626 21.086
rfemur -57.46 -9.36338 4.79457
rtibia 69.451
rfoot -23.9829 -3.86573
rtoes -15.1149
lfemur -60.2798 -7.15455 -26.4961
ltibia 62.8192
lfoot -14.4252 -17.6373
ltoes -7.26473
171
root 0.659842 15.8324 -16.9034 376.149 16.9178 9.92235
lowerback 85.9282 -8.15569 10.5259
upperback 7.27378 1.70288 -1.86127
thorax -10.8365 1.31437 -6.8418
lowerneck 3.28713 -8.31514 -1.5735
upperneck 4.1172 -11.0507 5.46637
head 1.16073 -5.42577 1.93805
rclavicle 1.27222e-014 4.73108e-014
rhumerus 237.604 -154.408 -263.73
rradius 3.58121
rwrist 26.1268
rhand -39.4728 4.44157
rfingers 7.12502
rthumb -12.4595 -25.167
lclavicle 1.27222e-014 4.73108e-014
lhumerus -32.5981 -18.5465 94.5098
lradius 55.3257
lwrist 13.5402
lhand -9.24649 -8.40467
lfingers 7.12502
lthumb 16.7092 20.8962
rfemur -57.8587 -9.4835 4.62979
rtibia 70.2525
rfoot -24.2965 -3.84821
rtoes -15.2993
lfemur -60.707 -7.15945 -26.6761
ltibia 63.534
lfoot -14.6274 -17.8167
ltoes -7.07031
172
root 0.656952 15.7812 -16.8993 376.171 17.0462 10.0518
lowerback 86.1281 -8.20045 10.4824
upperback 7.22521 1.66335 -1.88145
thorax -10.8703 1.30405 -6.83181
lowerneck 3.03973 -8.29573 -1.70889
upperneck 4.39358 -11.039 5.49373
head 1.30024 -5.4122 1.95192
rclavicle 3.18055e-015 -1.19271e-015
rhumerus 237.576 -154.426 -263.662
rradius 3.5607
rwrist 25.7493
rhand -39.9347 4.22911
rfingers 7.12502
rthumb -12.9048 -25.3519
lclavicle 3.18055e-015 -1.19271e-015
lhumerus -32.4715 -18.5309 94.4942
lradius 55.4118
lwrist 13.7075
lhand -9.23497 -8.64692
lfingers 7.12502
lthumb 16.7202 20.653
rfemur -58.2345 -9.58278 4.48552
rtibia 71.0154
rfoot -24.5893 -3.84775
rtoes -15.3954
lfemur -61.1273 -7.1738 -26.8263
ltibia 64.2216
lfoot -14.8201 -17.9613
ltoes -6.90223
173
root 0.6535 15.7305 -16.8953 376.206 17.1735 10.1918
lowerback 86.2737 -8.25541 10.4515
upperback 7.20754 1.60742 -1.93688
thorax -10.8751 1.29463 -6.86412
lowerneck 2.7275 -8.27571 -1.7941
upperneck 4.66473 -11.0271 5.55465
head 1.44899 -5.39722 1.9658
rclavicle 6.04305e-014 7.55382e-015
rhumerus 237.508 -154.397 -263.65
rradius 3.60057
rwrist 25.3517
rhand -40.3908 4.00979
rfingers 7.12502
rthumb -13.3445 -25.5429
lclavicle 6.04305e-014 7.55382e-015
lhumerus -32.3504 -18.5527 94.3968
lradius 55.534
lwrist 13.8435
lhand -9.17967 -8.87384
lfingers 7.12502
lthumb 16.7735 20.4216
rfemur -58.6237 -9.71355 4.35223
rtibia 71.7662
rfoot -24.8724 -3.836
rtoes -15.625
lfemur -61.5418 -7.19087 -26.9812
ltibia 64.8886
lfoot -15.007 -18.1207
ltoes -6.73032
174
root 0.650234 15.682 -16.8917 376.236 17.3025 10.3269
lowerback 86.3972 -8.30932 10.4185
upperback 7.19607 1.54788 -1.98792
thorax -10.8766 1.28351 -6.88919
lowerneck 2.43188 -8.25645 -1.86135
upperneck 4.94393 -11.0144 5.58091
head 1.59483 -5.38155 1.96677
rclavicle -6.36111e-015 -3.61788e-014
rhumerus 237.45 -154.398 -263.642
rradius 3.62576
rwrist 24.8744
rhand -40.8264 3.64422
rfingers 7.12502
rthumb -13.7643 -25.8805
lclavicle -6.36111e-015 -3.61788e-014
lhumerus -32.1957 -18.5542 94.3039
lradius 55.601
lwrist 13.9714
lhand -9.09069 -9.13168
lfingers 7.12502
lthumb 16.8591 20.1565
rfemur -58.981 -9.82186 4.20855
rtibia 72.4825
rfoot -25.1573 -3.84035
rtoes -15.7259
lfemur -61.9385 -7.2045 -27.1364
ltibia 65.5232
lfoot -15.1735 -18.2676
ltoes -6.56158
175
root 0.646404 15.6337 -16.8878 376.241 17.4184 10.4425
lowerback 86.5061 -8.32485 10.364
upperback 7.19588 1.50644 -2.02469
thorax -10.8677 1.27853 -6.89718
lowerneck 2.20106 -8.22968 -1.93456
upperneck 5.19312 -10.9902 5.61897
head 1.72132 -5.3615 1.9766
rclavicle -4.13472e-014 2.26615e-014
rhumerus 237.328 -154.434 -263.644
rradius 3.69928
rwrist 24.3303
rhand -41.3468 3.28473
rfingers 7.12502
rthumb -14.2658 -26.2053
lclavicle -4.13472e-014 2.26615e-014
lhumerus -32.0728 -18.527 94.2027
lradius 55.6669
lwrist 13.9898
lhand -8.94545 -9.37396
lfingers 7.12502
lthumb 16.999 19.9022
rfemur -59.3079 -9.91683 4.08628
rtibia 73.1692
rfoot -25.4137 -3.84054
rtoes -15.9087
lfemur -62.3053 -7.19838 -27.2741
ltibia 66.1425
lfoot -15.3179 -18.4316
ltoes -6.36639
176
root 0.64357 15.5889 -16.8845 376.255 17.5398 10.5598
lowerback 86.5849 -8.34856 10.3251
upperback 7.19808 1.46573 -2.06079
thorax -10.8592 1.27344 -6.91065
lowerneck 2.02794 -8.20559 -2.02976
upperneck 5.39724 -10.9692 5.69561
head 1.82802 -5.34464 2.00613
rclavicle -1.36764e-013 2.78299e-015
rhumerus 237.149 -154.467 -263.633
rradius 3.79744
rwrist 23.7509
rhand -41.8877 2.85342
rfingers 7.12502
rthumb -14.787 -26.5991
lclavicle -1.36764e-013 2.78299e-015
lhumerus -31.944 -18.5486 94.1184
lradius 55.7227
lwrist 14.0385
lhand -8.85188 -9.55543
lfingers 7.12502
lthumb 17.089 19.713
rfemur -59.6244 -10.02 3.96859
rtibia 73.8247
rfoot -25.6564 -3.87283
rtoes -16.0362
lfemur -62.643 -7.21702 -27.4072
ltibia 66.7158
lfoot -15.476 -18.5565
ltoes -6.22185
177
root 0.639819 15.5451 -16.8816 376.259 17.6589 10.6741
lowerback 86.6873 -8.31755 10.2378
upperback 7.17531 1.45135 -2.04735
thorax -10.8806 1.26968 -6.8572
lowerneck 1.90449 -8.17085 -2.11758
upperneck 5.6054 -10.9299 5.69142
head 1.92092 -5.32 2.01131
rclavicle -3.18055e-015 4.33351e-014
rhumerus 236.95 -154.563 -263.572
rradius 3.88128
rwrist 23.0587
rhand -42.4418 2.35705
rfingers 7.12502
rthumb -15.3208 -27.0554
lclavicle -3.18055e-015 4.33351e-014
lhumerus -31.8289 -18.4491 94.0876
lradius 55.7137
lwrist 14.0328
lhand -8.74184 -9.75489
lfingers 7.12502
lthumb 17.1949 19.5043
rfemur -59.9079 -10.1011 3.84568
rtibia 74.4452
rfoot -25.9069 -3.87393
rtoes -16.1011
lfemur -62.9685 -7.22179 -27.5387
ltibia 67.2714
lfoot -15.6174 -18.6921
ltoes -6.13677
